D:\school\WTK\thesis\model\3dpredictsim\Results\debug_batch\Pog_s1_tmt_aCst_d00_k2000_ig24_act_TTC_GRF.mot
nRows=27
nColumns=19

name D:\school\WTK\thesis\model\3dpredictsim\Results\debug_batch\Pog_s1_tmt_aCst_d00_k2000_ig24_act_TTC_GRF.mot
datacolumns 19
datarows 27
range 0.0000000000 0.3189116115
endheader
time 	ground_force_vx	ground_force_vy	ground_force_vz	ground_force_px	ground_force_py	ground_force_pz	1_ground_force_vx	1_ground_force_vy	1_ground_force_vz	1_ground_force_px	1_ground_force_py	1_ground_force_pz	ground_torque_x	ground_torque_y	ground_torque_z	1_ground_torque_x	1_ground_torque_y	1_ground_torque_z
        0.0000000000	      -78.7681311738	       69.6826565350	       24.9387912423	        0.1930155216	        0.0000000000	        0.0500000839	      106.8822378682	      415.9386531483	       -3.9811666932	       -0.3580968667	        0.0000000000	       -0.0359249138	        0.0000000000	        0.0000000000	        0.0000000000	        0.0000000000	        0.0000000000	        0.0000000000	
        0.0122658312	      -91.9598902769	      197.9059430986	       53.0313139364	        0.1994552164	        0.0000000000	        0.0484166431	       69.8434526045	      312.7586591784	      -10.5774754781	       -0.3499757039	        0.0000000000	       -0.0327692587	        0.0000000000	        0.0000000000	        0.0000000000	        0.0000000000	        0.0000000000	        0.0000000000	
        0.0245316624	      -61.7615454010	      405.0507613717	        5.6486909783	        0.2028649421	        0.0000000000	        0.0470079034	       36.9227671756	      205.7519245417	      -14.6378325210	       -0.3357707694	        0.0000000000	       -0.0266847833	        0.0000000000	        0.0000000000	        0.0000000000	        0.0000000000	        0.0000000000	        0.0000000000	
        0.0367974936	      -74.8365019224	      597.7692283265	       -9.9731959054	        0.2077387822	        0.0000000000	        0.0476681661	       24.5181510447	      162.1029760360	      -14.0417908236	       -0.3311635704	        0.0000000000	       -0.0243860125	        0.0000000000	        0.0000000000	        0.0000000000	        0.0000000000	        0.0000000000	        0.0000000000	
        0.0490633248	     -121.4714199919	      786.4741077835	      -16.9444482430	        0.2173971371	        0.0000000000	        0.0500423248	       20.1774811991	      118.5119286582	      -16.0988334278	       -0.3306667795	        0.0000000000	       -0.0246584282	        0.0000000000	        0.0000000000	        0.0000000000	        0.0000000000	        0.0000000000	        0.0000000000	
        0.0613291561	     -142.7290835381	      872.1558125606	      -19.1651973824	        0.2241295068	        0.0000000000	        0.0515670384	        9.1954159486	       64.4817320274	      -14.4794180212	       -0.3303893475	        0.0000000000	       -0.0249959977	        0.0000000000	        0.0000000000	        0.0000000000	        0.0000000000	        0.0000000000	        0.0000000000	
        0.0735949873	     -141.6164883367	      875.5338402181	      -19.3317604209	        0.2286486110	        0.0000000000	        0.0524582765	       -3.7304643963	        9.6796539368	       -2.9019442409	        0.0000000000	        0.0000000000	        0.0000000000	        0.0000000000	        0.0000000000	        0.0000000000	        0.0000000000	        0.0000000000	        0.0000000000	
        0.0858608185	     -127.4064750240	      842.9991829216	      -18.9989012046	        0.2322802326	        0.0000000000	        0.0529904918	        0.0017817386	       -0.0015600842	       -0.0000414697	        0.0000000000	        0.0000000000	        0.0000000000	        0.0000000000	        0.0000000000	        0.0000000000	        0.0000000000	        0.0000000000	        0.0000000000	
        0.0981266497	     -111.2660907952	      796.2103758707	      -18.1888305740	        0.2359873503	        0.0000000000	        0.0532532265	        0.0008121040	       -0.0005976884	       -0.0000475586	        0.0000000000	        0.0000000000	        0.0000000000	        0.0000000000	        0.0000000000	        0.0000000000	        0.0000000000	        0.0000000000	        0.0000000000	
        0.1103924809	      -97.5536710699	      752.6308435974	      -17.4287081965	        0.2399031953	        0.0000000000	        0.0533055185	        0.0063740500	       -0.0040934079	       -0.0004608272	        0.0000000000	        0.0000000000	        0.0000000000	        0.0000000000	        0.0000000000	        0.0000000000	        0.0000000000	        0.0000000000	        0.0000000000	
        0.1226583121	      -86.1009088995	      719.2343179603	      -17.1980703301	        0.2444815985	        0.0000000000	        0.0531982748	       -0.0769876776	        0.0447085618	        0.0058981471	        0.0000000000	        0.0000000000	        0.0000000000	        0.0000000000	        0.0000000000	        0.0000000000	        0.0000000000	        0.0000000000	        0.0000000000	
        0.1349241433	      -76.9231389317	      692.1505212232	      -17.7888960909	        0.2496186242	        0.0000000000	        0.0529201660	       -0.1659353970	        0.0893132208	        0.0129600847	        0.0000000000	        0.0000000000	        0.0000000000	        0.0000000000	        0.0000000000	        0.0000000000	        0.0000000000	        0.0000000000	        0.0000000000	
        0.1471899745	      -67.8166075349	      667.8598517113	      -18.1446165084	        0.2546302457	        0.0000000000	        0.0526470054	       -0.0997931845	        0.0508369008	        0.0075234247	        0.0000000000	        0.0000000000	        0.0000000000	        0.0000000000	        0.0000000000	        0.0000000000	        0.0000000000	        0.0000000000	        0.0000000000	
        0.1594558057	      -58.8343892607	      645.7198317153	      -18.8061245693	        0.2593538406	        0.0000000000	        0.0524454308	       -0.0635701793	        0.0309550037	        0.0046977274	        0.0000000000	        0.0000000000	        0.0000000000	        0.0000000000	        0.0000000000	        0.0000000000	        0.0000000000	        0.0000000000	        0.0000000000	
        0.1717216369	      -50.6722072715	      626.5881258037	      -19.2125745867	        0.2639596701	        0.0000000000	        0.0523142979	       -0.0500959432	        0.0234705280	        0.0036368435	        0.0000000000	        0.0000000000	        0.0000000000	        0.0000000000	        0.0000000000	        0.0000000000	        0.0000000000	        0.0000000000	        0.0000000000	
        0.1839874682	      -43.3773319716	      610.9758281496	      -19.4735794375	        0.2685264751	        0.0000000000	        0.0522196643	       -0.0494786410	        0.0224372900	        0.0035327751	        0.0000000000	        0.0000000000	        0.0000000000	        0.0000000000	        0.0000000000	        0.0000000000	        0.0000000000	        0.0000000000	        0.0000000000	
        0.1962532994	      -36.9148556849	      598.4964310155	      -19.5117563796	        0.2730668604	        0.0000000000	        0.0521405900	       -0.0596181839	        0.0262815079	        0.0041513304	        0.0000000000	        0.0000000000	        0.0000000000	        0.0000000000	        0.0000000000	        0.0000000000	        0.0000000000	        0.0000000000	        0.0000000000	
        0.2085191306	      -31.0279015493	      589.4771342151	      -19.3125295757	        0.2778077485	        0.0000000000	        0.0520430311	       -0.0856283141	        0.0368016868	        0.0057830716	        0.0000000000	        0.0000000000	        0.0000000000	        0.0000000000	        0.0000000000	        0.0000000000	        0.0000000000	        0.0000000000	        0.0000000000	
        0.2207849618	      -26.5622085752	      583.7262509829	      -19.2358619493	        0.2829153712	        0.0000000000	        0.0518801017	       -0.1397276883	        0.0586868622	        0.0090919420	        0.0000000000	        0.0000000000	        0.0000000000	        0.0000000000	        0.0000000000	        0.0000000000	        0.0000000000	        0.0000000000	        0.0000000000	
        0.2330507930	      -23.0465416728	      580.3726236061	      -19.1878797887	        0.2882152463	        0.0000000000	        0.0516538677	       -0.2438841251	        0.1003423730	        0.0152234902	        0.0000000000	        0.0000000000	        0.0000000000	        0.0000000000	        0.0000000000	        0.0000000000	        0.0000000000	        0.0000000000	        0.0000000000	
        0.2453166242	      -19.5531768938	      578.7028896206	      -19.3097457740	        0.2936660582	        0.0000000000	        0.0513710258	       -0.4271871719	        0.1726330356	        0.0255433325	        0.0000000000	        0.0000000000	        0.0000000000	        0.0000000000	        0.0000000000	        0.0000000000	        0.0000000000	        0.0000000000	        0.0000000000	
        0.2575824554	      -16.2719532068	      577.9203148935	      -19.4496009699	        0.2992414855	        0.0000000000	        0.0510394604	       -0.7105637779	        0.2828016033	        0.0406872576	        0.0000000000	        0.0000000000	        0.0000000000	        0.0000000000	        0.0000000000	        0.0000000000	        0.0000000000	        0.0000000000	        0.0000000000	
        0.2698482866	      -13.2180176972	      576.5555905734	      -19.8200638223	        0.3047639852	        0.0000000000	        0.0506846135	       -1.0805792812	        0.4247118131	        0.0593729813	        0.0000000000	        0.0000000000	        0.0000000000	        0.0000000000	        0.0000000000	        0.0000000000	        0.0000000000	        0.0000000000	        0.0000000000	
        0.2821141178	      -10.2954199032	      574.0584252098	      -20.0238292710	        0.3101681113	        0.0000000000	        0.0503258266	       -1.4702081244	        0.5721957102	        0.0776084241	        0.0000000000	        0.0000000000	        0.0000000000	        0.0000000000	        0.0000000000	        0.0000000000	        0.0000000000	        0.0000000000	        0.0000000000	
        0.2943799491	       -7.4445595486	      570.4109136419	      -19.9231715540	        0.3154536037	        0.0000000000	        0.0499673547	       -1.7886082920	        0.6909099000	        0.0905258045	        0.0000000000	        0.0000000000	        0.0000000000	        0.0000000000	        0.0000000000	        0.0000000000	        0.0000000000	        0.0000000000	        0.0000000000	
        0.3066457803	       -4.5741403466	      565.9694001066	      -19.4409017810	        0.3206372258	        0.0000000000	        0.0496075969	       -1.9739579443	        0.7581817972	        0.0946871564	        0.0000000000	        0.0000000000	        0.0000000000	        0.0000000000	        0.0000000000	        0.0000000000	        0.0000000000	        0.0000000000	        0.0000000000	
        0.3189116115	       -1.5134647314	      560.9394511333	      -18.2551843166	        0.3257340971	        0.0000000000	        0.0492457385	       -2.0226700655	        0.7734193294	        0.0897898827	        0.0000000000	        0.0000000000	        0.0000000000	        0.0000000000	        0.0000000000	        0.0000000000	        0.0000000000	        0.0000000000	        0.0000000000	
